<?xml version="1.0" encoding="utf-8" standalone="no"?>
<!DOCTYPE svg PUBLIC "-//W3C//DTD SVG 1.1//EN"
  "http://www.w3.org/Graphics/SVG/1.1/DTD/svg11.dtd">
<svg xmlns:xlink="http://www.w3.org/1999/xlink" width="720pt" height="504pt" viewBox="0 0 720 504" xmlns="http://www.w3.org/2000/svg" version="1.1">
 <metadata>
  <rdf:RDF xmlns:dc="http://purl.org/dc/elements/1.1/" xmlns:cc="http://creativecommons.org/ns#" xmlns:rdf="http://www.w3.org/1999/02/22-rdf-syntax-ns#">
   <cc:Work>
    <dc:type rdf:resource="http://purl.org/dc/dcmitype/StillImage"/>
    <dc:date>2025-09-30T13:36:51.732502</dc:date>
    <dc:format>image/svg+xml</dc:format>
    <dc:creator>
     <cc:Agent>
      <dc:title>Matplotlib v3.10.3, https://matplotlib.org/</dc:title>
     </cc:Agent>
    </dc:creator>
   </cc:Work>
  </rdf:RDF>
 </metadata>
 <defs>
  <style type="text/css">*{stroke-linejoin: round; stroke-linecap: butt}</style>
 </defs>
 <g id="figure_1">
  <g id="patch_1">
   <path d="M 0 504 
L 720 504 
L 720 0 
L 0 0 
z
" style="fill: #ffffff"/>
  </g>
  <g id="axes_1">
   <g id="patch_2">
    <path d="M 90 448.56 
L 648 448.56 
L 648 60.48 
L 90 60.48 
z
" style="fill: #ffffff"/>
   </g>
   <g id="matplotlib.axis_1">
    <g id="xtick_1">
     <g id="line2d_1">
      <path d="M 115.363636 448.56 
L 115.363636 60.48 
" clip-path="url(#p382e81c750)" style="fill: none; stroke-dasharray: 2.96,1.28; stroke-dashoffset: 0; stroke: #b0b0b0; stroke-width: 0.8"/>
     </g>
     <g id="line2d_2">
      <defs>
       <path id="mdb75e67287" d="M 0 0 
L 0 3.5 
" style="stroke: #000000; stroke-width: 0.8"/>
      </defs>
      <g>
       <use xlink:href="#mdb75e67287" x="115.363636" y="448.56" style="stroke: #000000; stroke-width: 0.8"/>
      </g>
     </g>
     <g id="text_1">
      <!-- 0 -->
      <g transform="translate(112.182386 463.158437) scale(0.1 -0.1)">
       <defs>
        <path id="DejaVuSans-30" d="M 2034 4250 
Q 1547 4250 1301 3770 
Q 1056 3291 1056 2328 
Q 1056 1369 1301 889 
Q 1547 409 2034 409 
Q 2525 409 2770 889 
Q 3016 1369 3016 2328 
Q 3016 3291 2770 3770 
Q 2525 4250 2034 4250 
z
M 2034 4750 
Q 2819 4750 3233 4129 
Q 3647 3509 3647 2328 
Q 3647 1150 3233 529 
Q 2819 -91 2034 -91 
Q 1250 -91 836 529 
Q 422 1150 422 2328 
Q 422 3509 836 4129 
Q 1250 4750 2034 4750 
z
" transform="scale(0.015625)"/>
       </defs>
       <use xlink:href="#DejaVuSans-30"/>
      </g>
     </g>
    </g>
    <g id="xtick_2">
     <g id="line2d_3">
      <path d="M 216.818182 448.56 
L 216.818182 60.48 
" clip-path="url(#p382e81c750)" style="fill: none; stroke-dasharray: 2.96,1.28; stroke-dashoffset: 0; stroke: #b0b0b0; stroke-width: 0.8"/>
     </g>
     <g id="line2d_4">
      <g>
       <use xlink:href="#mdb75e67287" x="216.818182" y="448.56" style="stroke: #000000; stroke-width: 0.8"/>
      </g>
     </g>
     <g id="text_2">
      <!-- 20 -->
      <g transform="translate(210.455682 463.158437) scale(0.1 -0.1)">
       <defs>
        <path id="DejaVuSans-32" d="M 1228 531 
L 3431 531 
L 3431 0 
L 469 0 
L 469 531 
Q 828 903 1448 1529 
Q 2069 2156 2228 2338 
Q 2531 2678 2651 2914 
Q 2772 3150 2772 3378 
Q 2772 3750 2511 3984 
Q 2250 4219 1831 4219 
Q 1534 4219 1204 4116 
Q 875 4013 500 3803 
L 500 4441 
Q 881 4594 1212 4672 
Q 1544 4750 1819 4750 
Q 2544 4750 2975 4387 
Q 3406 4025 3406 3419 
Q 3406 3131 3298 2873 
Q 3191 2616 2906 2266 
Q 2828 2175 2409 1742 
Q 1991 1309 1228 531 
z
" transform="scale(0.015625)"/>
       </defs>
       <use xlink:href="#DejaVuSans-32"/>
       <use xlink:href="#DejaVuSans-30" transform="translate(63.623047 0)"/>
      </g>
     </g>
    </g>
    <g id="xtick_3">
     <g id="line2d_5">
      <path d="M 318.272727 448.56 
L 318.272727 60.48 
" clip-path="url(#p382e81c750)" style="fill: none; stroke-dasharray: 2.96,1.28; stroke-dashoffset: 0; stroke: #b0b0b0; stroke-width: 0.8"/>
     </g>
     <g id="line2d_6">
      <g>
       <use xlink:href="#mdb75e67287" x="318.272727" y="448.56" style="stroke: #000000; stroke-width: 0.8"/>
      </g>
     </g>
     <g id="text_3">
      <!-- 40 -->
      <g transform="translate(311.910227 463.158437) scale(0.1 -0.1)">
       <defs>
        <path id="DejaVuSans-34" d="M 2419 4116 
L 825 1625 
L 2419 1625 
L 2419 4116 
z
M 2253 4666 
L 3047 4666 
L 3047 1625 
L 3713 1625 
L 3713 1100 
L 3047 1100 
L 3047 0 
L 2419 0 
L 2419 1100 
L 313 1100 
L 313 1709 
L 2253 4666 
z
" transform="scale(0.015625)"/>
       </defs>
       <use xlink:href="#DejaVuSans-34"/>
       <use xlink:href="#DejaVuSans-30" transform="translate(63.623047 0)"/>
      </g>
     </g>
    </g>
    <g id="xtick_4">
     <g id="line2d_7">
      <path d="M 419.727273 448.56 
L 419.727273 60.48 
" clip-path="url(#p382e81c750)" style="fill: none; stroke-dasharray: 2.96,1.28; stroke-dashoffset: 0; stroke: #b0b0b0; stroke-width: 0.8"/>
     </g>
     <g id="line2d_8">
      <g>
       <use xlink:href="#mdb75e67287" x="419.727273" y="448.56" style="stroke: #000000; stroke-width: 0.8"/>
      </g>
     </g>
     <g id="text_4">
      <!-- 60 -->
      <g transform="translate(413.364773 463.158437) scale(0.1 -0.1)">
       <defs>
        <path id="DejaVuSans-36" d="M 2113 2584 
Q 1688 2584 1439 2293 
Q 1191 2003 1191 1497 
Q 1191 994 1439 701 
Q 1688 409 2113 409 
Q 2538 409 2786 701 
Q 3034 994 3034 1497 
Q 3034 2003 2786 2293 
Q 2538 2584 2113 2584 
z
M 3366 4563 
L 3366 3988 
Q 3128 4100 2886 4159 
Q 2644 4219 2406 4219 
Q 1781 4219 1451 3797 
Q 1122 3375 1075 2522 
Q 1259 2794 1537 2939 
Q 1816 3084 2150 3084 
Q 2853 3084 3261 2657 
Q 3669 2231 3669 1497 
Q 3669 778 3244 343 
Q 2819 -91 2113 -91 
Q 1303 -91 875 529 
Q 447 1150 447 2328 
Q 447 3434 972 4092 
Q 1497 4750 2381 4750 
Q 2619 4750 2861 4703 
Q 3103 4656 3366 4563 
z
" transform="scale(0.015625)"/>
       </defs>
       <use xlink:href="#DejaVuSans-36"/>
       <use xlink:href="#DejaVuSans-30" transform="translate(63.623047 0)"/>
      </g>
     </g>
    </g>
    <g id="xtick_5">
     <g id="line2d_9">
      <path d="M 521.181818 448.56 
L 521.181818 60.48 
" clip-path="url(#p382e81c750)" style="fill: none; stroke-dasharray: 2.96,1.28; stroke-dashoffset: 0; stroke: #b0b0b0; stroke-width: 0.8"/>
     </g>
     <g id="line2d_10">
      <g>
       <use xlink:href="#mdb75e67287" x="521.181818" y="448.56" style="stroke: #000000; stroke-width: 0.8"/>
      </g>
     </g>
     <g id="text_5">
      <!-- 80 -->
      <g transform="translate(514.819318 463.158437) scale(0.1 -0.1)">
       <defs>
        <path id="DejaVuSans-38" d="M 2034 2216 
Q 1584 2216 1326 1975 
Q 1069 1734 1069 1313 
Q 1069 891 1326 650 
Q 1584 409 2034 409 
Q 2484 409 2743 651 
Q 3003 894 3003 1313 
Q 3003 1734 2745 1975 
Q 2488 2216 2034 2216 
z
M 1403 2484 
Q 997 2584 770 2862 
Q 544 3141 544 3541 
Q 544 4100 942 4425 
Q 1341 4750 2034 4750 
Q 2731 4750 3128 4425 
Q 3525 4100 3525 3541 
Q 3525 3141 3298 2862 
Q 3072 2584 2669 2484 
Q 3125 2378 3379 2068 
Q 3634 1759 3634 1313 
Q 3634 634 3220 271 
Q 2806 -91 2034 -91 
Q 1263 -91 848 271 
Q 434 634 434 1313 
Q 434 1759 690 2068 
Q 947 2378 1403 2484 
z
M 1172 3481 
Q 1172 3119 1398 2916 
Q 1625 2713 2034 2713 
Q 2441 2713 2670 2916 
Q 2900 3119 2900 3481 
Q 2900 3844 2670 4047 
Q 2441 4250 2034 4250 
Q 1625 4250 1398 4047 
Q 1172 3844 1172 3481 
z
" transform="scale(0.015625)"/>
       </defs>
       <use xlink:href="#DejaVuSans-38"/>
       <use xlink:href="#DejaVuSans-30" transform="translate(63.623047 0)"/>
      </g>
     </g>
    </g>
    <g id="xtick_6">
     <g id="line2d_11">
      <path d="M 622.636364 448.56 
L 622.636364 60.48 
" clip-path="url(#p382e81c750)" style="fill: none; stroke-dasharray: 2.96,1.28; stroke-dashoffset: 0; stroke: #b0b0b0; stroke-width: 0.8"/>
     </g>
     <g id="line2d_12">
      <g>
       <use xlink:href="#mdb75e67287" x="622.636364" y="448.56" style="stroke: #000000; stroke-width: 0.8"/>
      </g>
     </g>
     <g id="text_6">
      <!-- 100 -->
      <g transform="translate(613.092614 463.158437) scale(0.1 -0.1)">
       <defs>
        <path id="DejaVuSans-31" d="M 794 531 
L 1825 531 
L 1825 4091 
L 703 3866 
L 703 4441 
L 1819 4666 
L 2450 4666 
L 2450 531 
L 3481 531 
L 3481 0 
L 794 0 
L 794 531 
z
" transform="scale(0.015625)"/>
       </defs>
       <use xlink:href="#DejaVuSans-31"/>
       <use xlink:href="#DejaVuSans-30" transform="translate(63.623047 0)"/>
       <use xlink:href="#DejaVuSans-30" transform="translate(127.246094 0)"/>
      </g>
     </g>
    </g>
    <g id="text_7">
     <!-- Iteración -->
     <g transform="translate(347.002344 476.836563) scale(0.1 -0.1)">
      <defs>
       <path id="DejaVuSans-49" d="M 628 4666 
L 1259 4666 
L 1259 0 
L 628 0 
L 628 4666 
z
" transform="scale(0.015625)"/>
       <path id="DejaVuSans-74" d="M 1172 4494 
L 1172 3500 
L 2356 3500 
L 2356 3053 
L 1172 3053 
L 1172 1153 
Q 1172 725 1289 603 
Q 1406 481 1766 481 
L 2356 481 
L 2356 0 
L 1766 0 
Q 1100 0 847 248 
Q 594 497 594 1153 
L 594 3053 
L 172 3053 
L 172 3500 
L 594 3500 
L 594 4494 
L 1172 4494 
z
" transform="scale(0.015625)"/>
       <path id="DejaVuSans-65" d="M 3597 1894 
L 3597 1613 
L 953 1613 
Q 991 1019 1311 708 
Q 1631 397 2203 397 
Q 2534 397 2845 478 
Q 3156 559 3463 722 
L 3463 178 
Q 3153 47 2828 -22 
Q 2503 -91 2169 -91 
Q 1331 -91 842 396 
Q 353 884 353 1716 
Q 353 2575 817 3079 
Q 1281 3584 2069 3584 
Q 2775 3584 3186 3129 
Q 3597 2675 3597 1894 
z
M 3022 2063 
Q 3016 2534 2758 2815 
Q 2500 3097 2075 3097 
Q 1594 3097 1305 2825 
Q 1016 2553 972 2059 
L 3022 2063 
z
" transform="scale(0.015625)"/>
       <path id="DejaVuSans-72" d="M 2631 2963 
Q 2534 3019 2420 3045 
Q 2306 3072 2169 3072 
Q 1681 3072 1420 2755 
Q 1159 2438 1159 1844 
L 1159 0 
L 581 0 
L 581 3500 
L 1159 3500 
L 1159 2956 
Q 1341 3275 1631 3429 
Q 1922 3584 2338 3584 
Q 2397 3584 2469 3576 
Q 2541 3569 2628 3553 
L 2631 2963 
z
" transform="scale(0.015625)"/>
       <path id="DejaVuSans-61" d="M 2194 1759 
Q 1497 1759 1228 1600 
Q 959 1441 959 1056 
Q 959 750 1161 570 
Q 1363 391 1709 391 
Q 2188 391 2477 730 
Q 2766 1069 2766 1631 
L 2766 1759 
L 2194 1759 
z
M 3341 1997 
L 3341 0 
L 2766 0 
L 2766 531 
Q 2569 213 2275 61 
Q 1981 -91 1556 -91 
Q 1019 -91 701 211 
Q 384 513 384 1019 
Q 384 1609 779 1909 
Q 1175 2209 1959 2209 
L 2766 2209 
L 2766 2266 
Q 2766 2663 2505 2880 
Q 2244 3097 1772 3097 
Q 1472 3097 1187 3025 
Q 903 2953 641 2809 
L 641 3341 
Q 956 3463 1253 3523 
Q 1550 3584 1831 3584 
Q 2591 3584 2966 3190 
Q 3341 2797 3341 1997 
z
" transform="scale(0.015625)"/>
       <path id="DejaVuSans-63" d="M 3122 3366 
L 3122 2828 
Q 2878 2963 2633 3030 
Q 2388 3097 2138 3097 
Q 1578 3097 1268 2742 
Q 959 2388 959 1747 
Q 959 1106 1268 751 
Q 1578 397 2138 397 
Q 2388 397 2633 464 
Q 2878 531 3122 666 
L 3122 134 
Q 2881 22 2623 -34 
Q 2366 -91 2075 -91 
Q 1284 -91 818 406 
Q 353 903 353 1747 
Q 353 2603 823 3093 
Q 1294 3584 2113 3584 
Q 2378 3584 2631 3529 
Q 2884 3475 3122 3366 
z
" transform="scale(0.015625)"/>
       <path id="DejaVuSans-69" d="M 603 3500 
L 1178 3500 
L 1178 0 
L 603 0 
L 603 3500 
z
M 603 4863 
L 1178 4863 
L 1178 4134 
L 603 4134 
L 603 4863 
z
" transform="scale(0.015625)"/>
       <path id="DejaVuSans-f3" d="M 1959 3097 
Q 1497 3097 1228 2736 
Q 959 2375 959 1747 
Q 959 1119 1226 758 
Q 1494 397 1959 397 
Q 2419 397 2687 759 
Q 2956 1122 2956 1747 
Q 2956 2369 2687 2733 
Q 2419 3097 1959 3097 
z
M 1959 3584 
Q 2709 3584 3137 3096 
Q 3566 2609 3566 1747 
Q 3566 888 3137 398 
Q 2709 -91 1959 -91 
Q 1206 -91 779 398 
Q 353 888 353 1747 
Q 353 2609 779 3096 
Q 1206 3584 1959 3584 
z
M 2394 5119 
L 3016 5119 
L 1998 3944 
L 1519 3944 
L 2394 5119 
z
" transform="scale(0.015625)"/>
       <path id="DejaVuSans-6e" d="M 3513 2113 
L 3513 0 
L 2938 0 
L 2938 2094 
Q 2938 2591 2744 2837 
Q 2550 3084 2163 3084 
Q 1697 3084 1428 2787 
Q 1159 2491 1159 1978 
L 1159 0 
L 581 0 
L 581 3500 
L 1159 3500 
L 1159 2956 
Q 1366 3272 1645 3428 
Q 1925 3584 2291 3584 
Q 2894 3584 3203 3211 
Q 3513 2838 3513 2113 
z
" transform="scale(0.015625)"/>
      </defs>
      <use xlink:href="#DejaVuSans-49"/>
      <use xlink:href="#DejaVuSans-74" transform="translate(29.492188 0)"/>
      <use xlink:href="#DejaVuSans-65" transform="translate(68.701172 0)"/>
      <use xlink:href="#DejaVuSans-72" transform="translate(130.224609 0)"/>
      <use xlink:href="#DejaVuSans-61" transform="translate(171.337891 0)"/>
      <use xlink:href="#DejaVuSans-63" transform="translate(232.617188 0)"/>
      <use xlink:href="#DejaVuSans-69" transform="translate(287.597656 0)"/>
      <use xlink:href="#DejaVuSans-f3" transform="translate(315.380859 0)"/>
      <use xlink:href="#DejaVuSans-6e" transform="translate(376.5625 0)"/>
     </g>
    </g>
   </g>
   <g id="matplotlib.axis_2">
    <g id="ytick_1">
     <g id="line2d_13">
      <path d="M 90 396.628021 
L 648 396.628021 
" clip-path="url(#p382e81c750)" style="fill: none; stroke-dasharray: 2.96,1.28; stroke-dashoffset: 0; stroke: #b0b0b0; stroke-width: 0.8"/>
     </g>
     <g id="line2d_14">
      <defs>
       <path id="m41b62fb685" d="M 0 0 
L -2 0 
" style="stroke: #000000; stroke-width: 0.6"/>
      </defs>
      <g>
       <use xlink:href="#m41b62fb685" x="90" y="396.628021" style="stroke: #000000; stroke-width: 0.6"/>
      </g>
     </g>
     <g id="text_8">
      <!-- $\mathdefault{4.635\times10^{2}}$ -->
      <g transform="translate(26.1 400.42724) scale(0.1 -0.1)">
       <defs>
        <path id="DejaVuSans-2e" d="M 684 794 
L 1344 794 
L 1344 0 
L 684 0 
L 684 794 
z
" transform="scale(0.015625)"/>
        <path id="DejaVuSans-33" d="M 2597 2516 
Q 3050 2419 3304 2112 
Q 3559 1806 3559 1356 
Q 3559 666 3084 287 
Q 2609 -91 1734 -91 
Q 1441 -91 1130 -33 
Q 819 25 488 141 
L 488 750 
Q 750 597 1062 519 
Q 1375 441 1716 441 
Q 2309 441 2620 675 
Q 2931 909 2931 1356 
Q 2931 1769 2642 2001 
Q 2353 2234 1838 2234 
L 1294 2234 
L 1294 2753 
L 1863 2753 
Q 2328 2753 2575 2939 
Q 2822 3125 2822 3475 
Q 2822 3834 2567 4026 
Q 2313 4219 1838 4219 
Q 1578 4219 1281 4162 
Q 984 4106 628 3988 
L 628 4550 
Q 988 4650 1302 4700 
Q 1616 4750 1894 4750 
Q 2613 4750 3031 4423 
Q 3450 4097 3450 3541 
Q 3450 3153 3228 2886 
Q 3006 2619 2597 2516 
z
" transform="scale(0.015625)"/>
        <path id="DejaVuSans-35" d="M 691 4666 
L 3169 4666 
L 3169 4134 
L 1269 4134 
L 1269 2991 
Q 1406 3038 1543 3061 
Q 1681 3084 1819 3084 
Q 2600 3084 3056 2656 
Q 3513 2228 3513 1497 
Q 3513 744 3044 326 
Q 2575 -91 1722 -91 
Q 1428 -91 1123 -41 
Q 819 9 494 109 
L 494 744 
Q 775 591 1075 516 
Q 1375 441 1709 441 
Q 2250 441 2565 725 
Q 2881 1009 2881 1497 
Q 2881 1984 2565 2268 
Q 2250 2553 1709 2553 
Q 1456 2553 1204 2497 
Q 953 2441 691 2322 
L 691 4666 
z
" transform="scale(0.015625)"/>
        <path id="DejaVuSans-d7" d="M 4488 3438 
L 3059 2003 
L 4488 575 
L 4116 197 
L 2681 1631 
L 1247 197 
L 878 575 
L 2303 2003 
L 878 3438 
L 1247 3816 
L 2681 2381 
L 4116 3816 
L 4488 3438 
z
" transform="scale(0.015625)"/>
       </defs>
       <use xlink:href="#DejaVuSans-34" transform="translate(0 0.765625)"/>
       <use xlink:href="#DejaVuSans-2e" transform="translate(63.623047 0.765625)"/>
       <use xlink:href="#DejaVuSans-36" transform="translate(95.410156 0.765625)"/>
       <use xlink:href="#DejaVuSans-33" transform="translate(159.033203 0.765625)"/>
       <use xlink:href="#DejaVuSans-35" transform="translate(222.65625 0.765625)"/>
       <use xlink:href="#DejaVuSans-d7" transform="translate(305.761719 0.765625)"/>
       <use xlink:href="#DejaVuSans-31" transform="translate(409.033203 0.765625)"/>
       <use xlink:href="#DejaVuSans-30" transform="translate(472.65625 0.765625)"/>
       <use xlink:href="#DejaVuSans-32" transform="translate(537.236328 39.046875) scale(0.7)"/>
      </g>
     </g>
    </g>
    <g id="ytick_2">
     <g id="line2d_15">
      <path d="M 90 342.820981 
L 648 342.820981 
" clip-path="url(#p382e81c750)" style="fill: none; stroke-dasharray: 2.96,1.28; stroke-dashoffset: 0; stroke: #b0b0b0; stroke-width: 0.8"/>
     </g>
     <g id="line2d_16">
      <g>
       <use xlink:href="#m41b62fb685" x="90" y="342.820981" style="stroke: #000000; stroke-width: 0.6"/>
      </g>
     </g>
     <g id="text_9">
      <!-- $\mathdefault{4.64\times10^{2}}$ -->
      <g transform="translate(32.5 346.6202) scale(0.1 -0.1)">
       <use xlink:href="#DejaVuSans-34" transform="translate(0 0.765625)"/>
       <use xlink:href="#DejaVuSans-2e" transform="translate(63.623047 0.765625)"/>
       <use xlink:href="#DejaVuSans-36" transform="translate(95.410156 0.765625)"/>
       <use xlink:href="#DejaVuSans-34" transform="translate(159.033203 0.765625)"/>
       <use xlink:href="#DejaVuSans-d7" transform="translate(242.138672 0.765625)"/>
       <use xlink:href="#DejaVuSans-31" transform="translate(345.410156 0.765625)"/>
       <use xlink:href="#DejaVuSans-30" transform="translate(409.033203 0.765625)"/>
       <use xlink:href="#DejaVuSans-32" transform="translate(473.613281 39.046875) scale(0.7)"/>
      </g>
     </g>
    </g>
    <g id="ytick_3">
     <g id="line2d_17">
      <path d="M 90 289.071892 
L 648 289.071892 
" clip-path="url(#p382e81c750)" style="fill: none; stroke-dasharray: 2.96,1.28; stroke-dashoffset: 0; stroke: #b0b0b0; stroke-width: 0.8"/>
     </g>
     <g id="line2d_18">
      <g>
       <use xlink:href="#m41b62fb685" x="90" y="289.071892" style="stroke: #000000; stroke-width: 0.6"/>
      </g>
     </g>
     <g id="text_10">
      <!-- $\mathdefault{4.645\times10^{2}}$ -->
      <g transform="translate(26.1 292.871111) scale(0.1 -0.1)">
       <use xlink:href="#DejaVuSans-34" transform="translate(0 0.765625)"/>
       <use xlink:href="#DejaVuSans-2e" transform="translate(63.623047 0.765625)"/>
       <use xlink:href="#DejaVuSans-36" transform="translate(95.410156 0.765625)"/>
       <use xlink:href="#DejaVuSans-34" transform="translate(159.033203 0.765625)"/>
       <use xlink:href="#DejaVuSans-35" transform="translate(222.65625 0.765625)"/>
       <use xlink:href="#DejaVuSans-d7" transform="translate(305.761719 0.765625)"/>
       <use xlink:href="#DejaVuSans-31" transform="translate(409.033203 0.765625)"/>
       <use xlink:href="#DejaVuSans-30" transform="translate(472.65625 0.765625)"/>
       <use xlink:href="#DejaVuSans-32" transform="translate(537.236328 39.046875) scale(0.7)"/>
      </g>
     </g>
    </g>
    <g id="ytick_4">
     <g id="line2d_19">
      <path d="M 90 235.380628 
L 648 235.380628 
" clip-path="url(#p382e81c750)" style="fill: none; stroke-dasharray: 2.96,1.28; stroke-dashoffset: 0; stroke: #b0b0b0; stroke-width: 0.8"/>
     </g>
     <g id="line2d_20">
      <g>
       <use xlink:href="#m41b62fb685" x="90" y="235.380628" style="stroke: #000000; stroke-width: 0.6"/>
      </g>
     </g>
     <g id="text_11">
      <!-- $\mathdefault{4.65\times10^{2}}$ -->
      <g transform="translate(32.5 239.179847) scale(0.1 -0.1)">
       <use xlink:href="#DejaVuSans-34" transform="translate(0 0.765625)"/>
       <use xlink:href="#DejaVuSans-2e" transform="translate(63.623047 0.765625)"/>
       <use xlink:href="#DejaVuSans-36" transform="translate(95.410156 0.765625)"/>
       <use xlink:href="#DejaVuSans-35" transform="translate(159.033203 0.765625)"/>
       <use xlink:href="#DejaVuSans-d7" transform="translate(242.138672 0.765625)"/>
       <use xlink:href="#DejaVuSans-31" transform="translate(345.410156 0.765625)"/>
       <use xlink:href="#DejaVuSans-30" transform="translate(409.033203 0.765625)"/>
       <use xlink:href="#DejaVuSans-32" transform="translate(473.613281 39.046875) scale(0.7)"/>
      </g>
     </g>
    </g>
    <g id="ytick_5">
     <g id="line2d_21">
      <path d="M 90 181.747066 
L 648 181.747066 
" clip-path="url(#p382e81c750)" style="fill: none; stroke-dasharray: 2.96,1.28; stroke-dashoffset: 0; stroke: #b0b0b0; stroke-width: 0.8"/>
     </g>
     <g id="line2d_22">
      <g>
       <use xlink:href="#m41b62fb685" x="90" y="181.747066" style="stroke: #000000; stroke-width: 0.6"/>
      </g>
     </g>
     <g id="text_12">
      <!-- $\mathdefault{4.655\times10^{2}}$ -->
      <g transform="translate(26.1 185.546285) scale(0.1 -0.1)">
       <use xlink:href="#DejaVuSans-34" transform="translate(0 0.765625)"/>
       <use xlink:href="#DejaVuSans-2e" transform="translate(63.623047 0.765625)"/>
       <use xlink:href="#DejaVuSans-36" transform="translate(95.410156 0.765625)"/>
       <use xlink:href="#DejaVuSans-35" transform="translate(159.033203 0.765625)"/>
       <use xlink:href="#DejaVuSans-35" transform="translate(222.65625 0.765625)"/>
       <use xlink:href="#DejaVuSans-d7" transform="translate(305.761719 0.765625)"/>
       <use xlink:href="#DejaVuSans-31" transform="translate(409.033203 0.765625)"/>
       <use xlink:href="#DejaVuSans-30" transform="translate(472.65625 0.765625)"/>
       <use xlink:href="#DejaVuSans-32" transform="translate(537.236328 39.046875) scale(0.7)"/>
      </g>
     </g>
    </g>
    <g id="ytick_6">
     <g id="line2d_23">
      <path d="M 90 128.171082 
L 648 128.171082 
" clip-path="url(#p382e81c750)" style="fill: none; stroke-dasharray: 2.96,1.28; stroke-dashoffset: 0; stroke: #b0b0b0; stroke-width: 0.8"/>
     </g>
     <g id="line2d_24">
      <g>
       <use xlink:href="#m41b62fb685" x="90" y="128.171082" style="stroke: #000000; stroke-width: 0.6"/>
      </g>
     </g>
     <g id="text_13">
      <!-- $\mathdefault{4.66\times10^{2}}$ -->
      <g transform="translate(32.5 131.970301) scale(0.1 -0.1)">
       <use xlink:href="#DejaVuSans-34" transform="translate(0 0.765625)"/>
       <use xlink:href="#DejaVuSans-2e" transform="translate(63.623047 0.765625)"/>
       <use xlink:href="#DejaVuSans-36" transform="translate(95.410156 0.765625)"/>
       <use xlink:href="#DejaVuSans-36" transform="translate(159.033203 0.765625)"/>
       <use xlink:href="#DejaVuSans-d7" transform="translate(242.138672 0.765625)"/>
       <use xlink:href="#DejaVuSans-31" transform="translate(345.410156 0.765625)"/>
       <use xlink:href="#DejaVuSans-30" transform="translate(409.033203 0.765625)"/>
       <use xlink:href="#DejaVuSans-32" transform="translate(473.613281 39.046875) scale(0.7)"/>
      </g>
     </g>
    </g>
    <g id="ytick_7">
     <g id="line2d_25">
      <path d="M 90 74.652552 
L 648 74.652552 
" clip-path="url(#p382e81c750)" style="fill: none; stroke-dasharray: 2.96,1.28; stroke-dashoffset: 0; stroke: #b0b0b0; stroke-width: 0.8"/>
     </g>
     <g id="line2d_26">
      <g>
       <use xlink:href="#m41b62fb685" x="90" y="74.652552" style="stroke: #000000; stroke-width: 0.6"/>
      </g>
     </g>
     <g id="text_14">
      <!-- $\mathdefault{4.665\times10^{2}}$ -->
      <g transform="translate(26.1 78.45177) scale(0.1 -0.1)">
       <use xlink:href="#DejaVuSans-34" transform="translate(0 0.765625)"/>
       <use xlink:href="#DejaVuSans-2e" transform="translate(63.623047 0.765625)"/>
       <use xlink:href="#DejaVuSans-36" transform="translate(95.410156 0.765625)"/>
       <use xlink:href="#DejaVuSans-36" transform="translate(159.033203 0.765625)"/>
       <use xlink:href="#DejaVuSans-35" transform="translate(222.65625 0.765625)"/>
       <use xlink:href="#DejaVuSans-d7" transform="translate(305.761719 0.765625)"/>
       <use xlink:href="#DejaVuSans-31" transform="translate(409.033203 0.765625)"/>
       <use xlink:href="#DejaVuSans-30" transform="translate(472.65625 0.765625)"/>
       <use xlink:href="#DejaVuSans-32" transform="translate(537.236328 39.046875) scale(0.7)"/>
      </g>
     </g>
    </g>
    <g id="text_15">
     <!-- Valor de la Función de Coste (MSE) -->
     <g transform="translate(20.020312 341.655938) rotate(-90) scale(0.1 -0.1)">
      <defs>
       <path id="DejaVuSans-56" d="M 1831 0 
L 50 4666 
L 709 4666 
L 2188 738 
L 3669 4666 
L 4325 4666 
L 2547 0 
L 1831 0 
z
" transform="scale(0.015625)"/>
       <path id="DejaVuSans-6c" d="M 603 4863 
L 1178 4863 
L 1178 0 
L 603 0 
L 603 4863 
z
" transform="scale(0.015625)"/>
       <path id="DejaVuSans-6f" d="M 1959 3097 
Q 1497 3097 1228 2736 
Q 959 2375 959 1747 
Q 959 1119 1226 758 
Q 1494 397 1959 397 
Q 2419 397 2687 759 
Q 2956 1122 2956 1747 
Q 2956 2369 2687 2733 
Q 2419 3097 1959 3097 
z
M 1959 3584 
Q 2709 3584 3137 3096 
Q 3566 2609 3566 1747 
Q 3566 888 3137 398 
Q 2709 -91 1959 -91 
Q 1206 -91 779 398 
Q 353 888 353 1747 
Q 353 2609 779 3096 
Q 1206 3584 1959 3584 
z
" transform="scale(0.015625)"/>
       <path id="DejaVuSans-20" transform="scale(0.015625)"/>
       <path id="DejaVuSans-64" d="M 2906 2969 
L 2906 4863 
L 3481 4863 
L 3481 0 
L 2906 0 
L 2906 525 
Q 2725 213 2448 61 
Q 2172 -91 1784 -91 
Q 1150 -91 751 415 
Q 353 922 353 1747 
Q 353 2572 751 3078 
Q 1150 3584 1784 3584 
Q 2172 3584 2448 3432 
Q 2725 3281 2906 2969 
z
M 947 1747 
Q 947 1113 1208 752 
Q 1469 391 1925 391 
Q 2381 391 2643 752 
Q 2906 1113 2906 1747 
Q 2906 2381 2643 2742 
Q 2381 3103 1925 3103 
Q 1469 3103 1208 2742 
Q 947 2381 947 1747 
z
" transform="scale(0.015625)"/>
       <path id="DejaVuSans-46" d="M 628 4666 
L 3309 4666 
L 3309 4134 
L 1259 4134 
L 1259 2759 
L 3109 2759 
L 3109 2228 
L 1259 2228 
L 1259 0 
L 628 0 
L 628 4666 
z
" transform="scale(0.015625)"/>
       <path id="DejaVuSans-75" d="M 544 1381 
L 544 3500 
L 1119 3500 
L 1119 1403 
Q 1119 906 1312 657 
Q 1506 409 1894 409 
Q 2359 409 2629 706 
Q 2900 1003 2900 1516 
L 2900 3500 
L 3475 3500 
L 3475 0 
L 2900 0 
L 2900 538 
Q 2691 219 2414 64 
Q 2138 -91 1772 -91 
Q 1169 -91 856 284 
Q 544 659 544 1381 
z
M 1991 3584 
L 1991 3584 
z
" transform="scale(0.015625)"/>
       <path id="DejaVuSans-43" d="M 4122 4306 
L 4122 3641 
Q 3803 3938 3442 4084 
Q 3081 4231 2675 4231 
Q 1875 4231 1450 3742 
Q 1025 3253 1025 2328 
Q 1025 1406 1450 917 
Q 1875 428 2675 428 
Q 3081 428 3442 575 
Q 3803 722 4122 1019 
L 4122 359 
Q 3791 134 3420 21 
Q 3050 -91 2638 -91 
Q 1578 -91 968 557 
Q 359 1206 359 2328 
Q 359 3453 968 4101 
Q 1578 4750 2638 4750 
Q 3056 4750 3426 4639 
Q 3797 4528 4122 4306 
z
" transform="scale(0.015625)"/>
       <path id="DejaVuSans-73" d="M 2834 3397 
L 2834 2853 
Q 2591 2978 2328 3040 
Q 2066 3103 1784 3103 
Q 1356 3103 1142 2972 
Q 928 2841 928 2578 
Q 928 2378 1081 2264 
Q 1234 2150 1697 2047 
L 1894 2003 
Q 2506 1872 2764 1633 
Q 3022 1394 3022 966 
Q 3022 478 2636 193 
Q 2250 -91 1575 -91 
Q 1294 -91 989 -36 
Q 684 19 347 128 
L 347 722 
Q 666 556 975 473 
Q 1284 391 1588 391 
Q 1994 391 2212 530 
Q 2431 669 2431 922 
Q 2431 1156 2273 1281 
Q 2116 1406 1581 1522 
L 1381 1569 
Q 847 1681 609 1914 
Q 372 2147 372 2553 
Q 372 3047 722 3315 
Q 1072 3584 1716 3584 
Q 2034 3584 2315 3537 
Q 2597 3491 2834 3397 
z
" transform="scale(0.015625)"/>
       <path id="DejaVuSans-28" d="M 1984 4856 
Q 1566 4138 1362 3434 
Q 1159 2731 1159 2009 
Q 1159 1288 1364 580 
Q 1569 -128 1984 -844 
L 1484 -844 
Q 1016 -109 783 600 
Q 550 1309 550 2009 
Q 550 2706 781 3412 
Q 1013 4119 1484 4856 
L 1984 4856 
z
" transform="scale(0.015625)"/>
       <path id="DejaVuSans-4d" d="M 628 4666 
L 1569 4666 
L 2759 1491 
L 3956 4666 
L 4897 4666 
L 4897 0 
L 4281 0 
L 4281 4097 
L 3078 897 
L 2444 897 
L 1241 4097 
L 1241 0 
L 628 0 
L 628 4666 
z
" transform="scale(0.015625)"/>
       <path id="DejaVuSans-53" d="M 3425 4513 
L 3425 3897 
Q 3066 4069 2747 4153 
Q 2428 4238 2131 4238 
Q 1616 4238 1336 4038 
Q 1056 3838 1056 3469 
Q 1056 3159 1242 3001 
Q 1428 2844 1947 2747 
L 2328 2669 
Q 3034 2534 3370 2195 
Q 3706 1856 3706 1288 
Q 3706 609 3251 259 
Q 2797 -91 1919 -91 
Q 1588 -91 1214 -16 
Q 841 59 441 206 
L 441 856 
Q 825 641 1194 531 
Q 1563 422 1919 422 
Q 2459 422 2753 634 
Q 3047 847 3047 1241 
Q 3047 1584 2836 1778 
Q 2625 1972 2144 2069 
L 1759 2144 
Q 1053 2284 737 2584 
Q 422 2884 422 3419 
Q 422 4038 858 4394 
Q 1294 4750 2059 4750 
Q 2388 4750 2728 4690 
Q 3069 4631 3425 4513 
z
" transform="scale(0.015625)"/>
       <path id="DejaVuSans-45" d="M 628 4666 
L 3578 4666 
L 3578 4134 
L 1259 4134 
L 1259 2753 
L 3481 2753 
L 3481 2222 
L 1259 2222 
L 1259 531 
L 3634 531 
L 3634 0 
L 628 0 
L 628 4666 
z
" transform="scale(0.015625)"/>
       <path id="DejaVuSans-29" d="M 513 4856 
L 1013 4856 
Q 1481 4119 1714 3412 
Q 1947 2706 1947 2009 
Q 1947 1309 1714 600 
Q 1481 -109 1013 -844 
L 513 -844 
Q 928 -128 1133 580 
Q 1338 1288 1338 2009 
Q 1338 2731 1133 3434 
Q 928 4138 513 4856 
z
" transform="scale(0.015625)"/>
      </defs>
      <use xlink:href="#DejaVuSans-56"/>
      <use xlink:href="#DejaVuSans-61" transform="translate(60.658203 0)"/>
      <use xlink:href="#DejaVuSans-6c" transform="translate(121.9375 0)"/>
      <use xlink:href="#DejaVuSans-6f" transform="translate(149.720703 0)"/>
      <use xlink:href="#DejaVuSans-72" transform="translate(210.902344 0)"/>
      <use xlink:href="#DejaVuSans-20" transform="translate(252.015625 0)"/>
      <use xlink:href="#DejaVuSans-64" transform="translate(283.802734 0)"/>
      <use xlink:href="#DejaVuSans-65" transform="translate(347.279297 0)"/>
      <use xlink:href="#DejaVuSans-20" transform="translate(408.802734 0)"/>
      <use xlink:href="#DejaVuSans-6c" transform="translate(440.589844 0)"/>
      <use xlink:href="#DejaVuSans-61" transform="translate(468.373047 0)"/>
      <use xlink:href="#DejaVuSans-20" transform="translate(529.652344 0)"/>
      <use xlink:href="#DejaVuSans-46" transform="translate(561.439453 0)"/>
      <use xlink:href="#DejaVuSans-75" transform="translate(613.458984 0)"/>
      <use xlink:href="#DejaVuSans-6e" transform="translate(676.837891 0)"/>
      <use xlink:href="#DejaVuSans-63" transform="translate(740.216797 0)"/>
      <use xlink:href="#DejaVuSans-69" transform="translate(795.197266 0)"/>
      <use xlink:href="#DejaVuSans-f3" transform="translate(822.980469 0)"/>
      <use xlink:href="#DejaVuSans-6e" transform="translate(884.162109 0)"/>
      <use xlink:href="#DejaVuSans-20" transform="translate(947.541016 0)"/>
      <use xlink:href="#DejaVuSans-64" transform="translate(979.328125 0)"/>
      <use xlink:href="#DejaVuSans-65" transform="translate(1042.804688 0)"/>
      <use xlink:href="#DejaVuSans-20" transform="translate(1104.328125 0)"/>
      <use xlink:href="#DejaVuSans-43" transform="translate(1136.115234 0)"/>
      <use xlink:href="#DejaVuSans-6f" transform="translate(1205.939453 0)"/>
      <use xlink:href="#DejaVuSans-73" transform="translate(1267.121094 0)"/>
      <use xlink:href="#DejaVuSans-74" transform="translate(1319.220703 0)"/>
      <use xlink:href="#DejaVuSans-65" transform="translate(1358.429688 0)"/>
      <use xlink:href="#DejaVuSans-20" transform="translate(1419.953125 0)"/>
      <use xlink:href="#DejaVuSans-28" transform="translate(1451.740234 0)"/>
      <use xlink:href="#DejaVuSans-4d" transform="translate(1490.753906 0)"/>
      <use xlink:href="#DejaVuSans-53" transform="translate(1577.033203 0)"/>
      <use xlink:href="#DejaVuSans-45" transform="translate(1640.509766 0)"/>
      <use xlink:href="#DejaVuSans-29" transform="translate(1703.693359 0)"/>
     </g>
    </g>
   </g>
   <g id="line2d_27">
    <path d="M 115.363636 78.12 
L 120.436364 373.932642 
L 125.509091 393.644122 
L 130.581818 403.198844 
L 135.654545 403.198844 
L 140.727273 403.198844 
L 145.8 418.711914 
L 150.872727 418.711914 
L 155.945455 418.711914 
L 161.018182 425.465556 
L 166.090909 429.314938 
L 171.163636 429.314938 
L 176.236364 429.314938 
L 181.309091 429.314938 
L 186.381818 429.314938 
L 191.454545 429.314938 
L 196.527273 429.314938 
L 201.6 429.314938 
L 206.672727 429.314938 
L 211.745455 429.314938 
L 216.818182 429.314938 
L 221.890909 429.314938 
L 226.963636 429.439278 
L 232.036364 429.439278 
L 237.109091 429.446977 
L 242.181818 429.446977 
L 247.254545 429.446977 
L 252.327273 429.561514 
L 257.4 430.2236 
L 262.472727 430.2236 
L 267.545455 430.2236 
L 272.618182 430.2236 
L 277.690909 430.2236 
L 282.763636 430.2236 
L 287.836364 430.2236 
L 292.909091 430.2236 
L 297.981818 430.2236 
L 303.054545 430.2236 
L 308.127273 430.2236 
L 313.2 430.270926 
L 318.272727 430.559037 
L 323.345455 430.559037 
L 328.418182 430.559037 
L 333.490909 430.559037 
L 338.563636 430.559037 
L 343.636364 430.559037 
L 348.709091 430.559037 
L 353.781818 430.559037 
L 358.854545 430.559037 
L 363.927273 430.696332 
L 369 430.696332 
L 374.072727 430.696332 
L 379.145455 430.750596 
L 384.218182 430.750596 
L 389.290909 430.750596 
L 394.363636 430.750596 
L 399.436364 430.759213 
L 404.509091 430.759213 
L 409.581818 430.770442 
L 414.654545 430.777037 
L 419.727273 430.777037 
L 424.8 430.815787 
L 429.872727 430.815787 
L 434.945455 430.820173 
L 440.018182 430.820173 
L 445.090909 430.820916 
L 450.163636 430.820916 
L 455.236364 430.827577 
L 460.309091 430.830296 
L 465.381818 430.834452 
L 470.454545 430.836544 
L 475.527273 430.836544 
L 480.6 430.837852 
L 485.672727 430.837852 
L 490.745455 430.842892 
L 495.818182 430.851398 
L 500.890909 430.859618 
L 505.963636 430.866235 
L 511.036364 430.871457 
L 516.109091 430.876307 
L 521.181818 430.889287 
L 526.254545 430.897215 
L 531.327273 430.907652 
L 536.4 430.914639 
L 541.472727 430.917178 
L 546.545455 430.918036 
L 551.618182 430.919346 
L 556.690909 430.919624 
L 561.763636 430.919932 
L 566.836364 430.919932 
L 571.909091 430.919932 
L 576.981818 430.919932 
L 582.054545 430.919961 
L 587.127273 430.919989 
L 592.2 430.919989 
L 597.272727 430.919996 
L 602.345455 430.919996 
L 607.418182 430.919996 
L 612.490909 430.919996 
L 617.563636 430.919997 
L 622.636364 430.92 
" clip-path="url(#p382e81c750)" style="fill: none; stroke: #1f77b4; stroke-width: 2.5; stroke-linecap: square"/>
   </g>
   <g id="line2d_28">
    <path d="M 115.363636 340.601752 
L 120.436364 351.679365 
L 125.509091 351.679365 
L 130.581818 364.522388 
L 135.654545 364.522388 
L 140.727273 388.877958 
L 145.8 388.877958 
L 150.872727 388.877958 
L 155.945455 388.877958 
L 161.018182 388.877958 
L 166.090909 388.877958 
L 171.163636 421.55086 
L 176.236364 421.55086 
L 181.309091 421.55086 
L 186.381818 421.55086 
L 191.454545 421.55086 
L 196.527273 421.55086 
L 201.6 421.55086 
L 206.672727 421.55086 
L 211.745455 427.668465 
L 216.818182 427.668465 
L 221.890909 427.668465 
L 226.963636 427.668465 
L 232.036364 427.668465 
L 237.109091 427.668465 
L 242.181818 427.668465 
L 247.254545 427.668465 
L 252.327273 427.668465 
L 257.4 427.668465 
L 262.472727 427.668465 
L 267.545455 427.668465 
L 272.618182 427.668465 
L 277.690909 427.668465 
L 282.763636 427.668465 
L 287.836364 427.668465 
L 292.909091 427.668465 
L 297.981818 427.668465 
L 303.054545 427.668465 
L 308.127273 427.668465 
L 313.2 427.668465 
L 318.272727 427.668465 
L 323.345455 427.668465 
L 328.418182 427.668465 
L 333.490909 427.668465 
L 338.563636 427.668465 
L 343.636364 427.668465 
L 348.709091 427.668465 
L 353.781818 427.668465 
L 358.854545 427.668465 
L 363.927273 427.668465 
L 369 427.668465 
L 374.072727 428.835507 
L 379.145455 428.835507 
L 384.218182 428.835507 
L 389.290909 428.835507 
L 394.363636 428.835507 
L 399.436364 428.835507 
L 404.509091 428.835507 
L 409.581818 428.835507 
L 414.654545 428.835507 
L 419.727273 428.835507 
L 424.8 428.835507 
L 429.872727 428.835507 
L 434.945455 428.835507 
L 440.018182 428.835507 
L 445.090909 428.835507 
L 450.163636 428.835507 
L 455.236364 428.835507 
L 460.309091 428.835507 
L 465.381818 428.835507 
L 470.454545 428.835507 
L 475.527273 428.835507 
L 480.6 428.835507 
L 485.672727 428.835507 
L 490.745455 428.835507 
L 495.818182 428.835507 
L 500.890909 428.835507 
L 505.963636 428.835507 
L 511.036364 428.835507 
L 516.109091 428.835507 
L 521.181818 428.835507 
L 526.254545 428.835507 
L 531.327273 428.835507 
L 536.4 428.835507 
L 541.472727 428.835507 
L 546.545455 428.835507 
L 551.618182 428.835507 
L 556.690909 428.835507 
L 561.763636 428.835507 
L 566.836364 428.835507 
L 571.909091 428.835507 
L 576.981818 428.835507 
L 582.054545 428.835507 
L 587.127273 428.835507 
L 592.2 428.835507 
L 597.272727 428.835507 
L 602.345455 428.835507 
L 607.418182 428.835507 
L 612.490909 428.835507 
L 617.563636 428.835507 
L 622.636364 428.835507 
" clip-path="url(#p382e81c750)" style="fill: none; stroke: #ff7f0e; stroke-width: 2.5; stroke-linecap: square"/>
   </g>
   <g id="patch_3">
    <path d="M 90 448.56 
L 90 60.48 
" style="fill: none; stroke: #000000; stroke-width: 0.8; stroke-linejoin: miter; stroke-linecap: square"/>
   </g>
   <g id="patch_4">
    <path d="M 648 448.56 
L 648 60.48 
" style="fill: none; stroke: #000000; stroke-width: 0.8; stroke-linejoin: miter; stroke-linecap: square"/>
   </g>
   <g id="patch_5">
    <path d="M 90 448.56 
L 648 448.56 
" style="fill: none; stroke: #000000; stroke-width: 0.8; stroke-linejoin: miter; stroke-linecap: square"/>
   </g>
   <g id="patch_6">
    <path d="M 90 60.48 
L 648 60.48 
" style="fill: none; stroke: #000000; stroke-width: 0.8; stroke-linejoin: miter; stroke-linecap: square"/>
   </g>
   <g id="text_16">
    <!-- Curvas de Convergencia (Mejor Corrida) -->
    <g transform="translate(248.6475 54.48) scale(0.12 -0.12)">
     <defs>
      <path id="DejaVuSans-76" d="M 191 3500 
L 800 3500 
L 1894 563 
L 2988 3500 
L 3597 3500 
L 2284 0 
L 1503 0 
L 191 3500 
z
" transform="scale(0.015625)"/>
      <path id="DejaVuSans-67" d="M 2906 1791 
Q 2906 2416 2648 2759 
Q 2391 3103 1925 3103 
Q 1463 3103 1205 2759 
Q 947 2416 947 1791 
Q 947 1169 1205 825 
Q 1463 481 1925 481 
Q 2391 481 2648 825 
Q 2906 1169 2906 1791 
z
M 3481 434 
Q 3481 -459 3084 -895 
Q 2688 -1331 1869 -1331 
Q 1566 -1331 1297 -1286 
Q 1028 -1241 775 -1147 
L 775 -588 
Q 1028 -725 1275 -790 
Q 1522 -856 1778 -856 
Q 2344 -856 2625 -561 
Q 2906 -266 2906 331 
L 2906 616 
Q 2728 306 2450 153 
Q 2172 0 1784 0 
Q 1141 0 747 490 
Q 353 981 353 1791 
Q 353 2603 747 3093 
Q 1141 3584 1784 3584 
Q 2172 3584 2450 3431 
Q 2728 3278 2906 2969 
L 2906 3500 
L 3481 3500 
L 3481 434 
z
" transform="scale(0.015625)"/>
      <path id="DejaVuSans-6a" d="M 603 3500 
L 1178 3500 
L 1178 -63 
Q 1178 -731 923 -1031 
Q 669 -1331 103 -1331 
L -116 -1331 
L -116 -844 
L 38 -844 
Q 366 -844 484 -692 
Q 603 -541 603 -63 
L 603 3500 
z
M 603 4863 
L 1178 4863 
L 1178 4134 
L 603 4134 
L 603 4863 
z
" transform="scale(0.015625)"/>
     </defs>
     <use xlink:href="#DejaVuSans-43"/>
     <use xlink:href="#DejaVuSans-75" transform="translate(69.824219 0)"/>
     <use xlink:href="#DejaVuSans-72" transform="translate(133.203125 0)"/>
     <use xlink:href="#DejaVuSans-76" transform="translate(174.316406 0)"/>
     <use xlink:href="#DejaVuSans-61" transform="translate(233.496094 0)"/>
     <use xlink:href="#DejaVuSans-73" transform="translate(294.775391 0)"/>
     <use xlink:href="#DejaVuSans-20" transform="translate(346.875 0)"/>
     <use xlink:href="#DejaVuSans-64" transform="translate(378.662109 0)"/>
     <use xlink:href="#DejaVuSans-65" transform="translate(442.138672 0)"/>
     <use xlink:href="#DejaVuSans-20" transform="translate(503.662109 0)"/>
     <use xlink:href="#DejaVuSans-43" transform="translate(535.449219 0)"/>
     <use xlink:href="#DejaVuSans-6f" transform="translate(605.273438 0)"/>
     <use xlink:href="#DejaVuSans-6e" transform="translate(666.455078 0)"/>
     <use xlink:href="#DejaVuSans-76" transform="translate(729.833984 0)"/>
     <use xlink:href="#DejaVuSans-65" transform="translate(789.013672 0)"/>
     <use xlink:href="#DejaVuSans-72" transform="translate(850.537109 0)"/>
     <use xlink:href="#DejaVuSans-67" transform="translate(889.900391 0)"/>
     <use xlink:href="#DejaVuSans-65" transform="translate(953.376953 0)"/>
     <use xlink:href="#DejaVuSans-6e" transform="translate(1014.900391 0)"/>
     <use xlink:href="#DejaVuSans-63" transform="translate(1078.279297 0)"/>
     <use xlink:href="#DejaVuSans-69" transform="translate(1133.259766 0)"/>
     <use xlink:href="#DejaVuSans-61" transform="translate(1161.042969 0)"/>
     <use xlink:href="#DejaVuSans-20" transform="translate(1222.322266 0)"/>
     <use xlink:href="#DejaVuSans-28" transform="translate(1254.109375 0)"/>
     <use xlink:href="#DejaVuSans-4d" transform="translate(1293.123047 0)"/>
     <use xlink:href="#DejaVuSans-65" transform="translate(1379.402344 0)"/>
     <use xlink:href="#DejaVuSans-6a" transform="translate(1440.925781 0)"/>
     <use xlink:href="#DejaVuSans-6f" transform="translate(1468.708984 0)"/>
     <use xlink:href="#DejaVuSans-72" transform="translate(1529.890625 0)"/>
     <use xlink:href="#DejaVuSans-20" transform="translate(1571.003906 0)"/>
     <use xlink:href="#DejaVuSans-43" transform="translate(1602.791016 0)"/>
     <use xlink:href="#DejaVuSans-6f" transform="translate(1672.615234 0)"/>
     <use xlink:href="#DejaVuSans-72" transform="translate(1733.796875 0)"/>
     <use xlink:href="#DejaVuSans-72" transform="translate(1773.160156 0)"/>
     <use xlink:href="#DejaVuSans-69" transform="translate(1814.273438 0)"/>
     <use xlink:href="#DejaVuSans-64" transform="translate(1842.056641 0)"/>
     <use xlink:href="#DejaVuSans-61" transform="translate(1905.533203 0)"/>
     <use xlink:href="#DejaVuSans-29" transform="translate(1966.8125 0)"/>
    </g>
   </g>
   <g id="legend_1">
    <g id="patch_7">
     <path d="M 583.492188 97.83625 
L 641 97.83625 
Q 643 97.83625 643 95.83625 
L 643 67.48 
Q 643 65.48 641 65.48 
L 583.492188 65.48 
Q 581.492188 65.48 581.492188 67.48 
L 581.492188 95.83625 
Q 581.492188 97.83625 583.492188 97.83625 
z
" style="fill: #ffffff; opacity: 0.8; stroke: #cccccc; stroke-linejoin: miter"/>
    </g>
    <g id="line2d_29">
     <path d="M 585.492188 73.578438 
L 595.492188 73.578438 
L 605.492188 73.578438 
" style="fill: none; stroke: #1f77b4; stroke-width: 2.5; stroke-linecap: square"/>
    </g>
    <g id="text_17">
     <!-- PSO -->
     <g transform="translate(613.492188 77.078438) scale(0.1 -0.1)">
      <defs>
       <path id="DejaVuSans-50" d="M 1259 4147 
L 1259 2394 
L 2053 2394 
Q 2494 2394 2734 2622 
Q 2975 2850 2975 3272 
Q 2975 3691 2734 3919 
Q 2494 4147 2053 4147 
L 1259 4147 
z
M 628 4666 
L 2053 4666 
Q 2838 4666 3239 4311 
Q 3641 3956 3641 3272 
Q 3641 2581 3239 2228 
Q 2838 1875 2053 1875 
L 1259 1875 
L 1259 0 
L 628 0 
L 628 4666 
z
" transform="scale(0.015625)"/>
       <path id="DejaVuSans-4f" d="M 2522 4238 
Q 1834 4238 1429 3725 
Q 1025 3213 1025 2328 
Q 1025 1447 1429 934 
Q 1834 422 2522 422 
Q 3209 422 3611 934 
Q 4013 1447 4013 2328 
Q 4013 3213 3611 3725 
Q 3209 4238 2522 4238 
z
M 2522 4750 
Q 3503 4750 4090 4092 
Q 4678 3434 4678 2328 
Q 4678 1225 4090 567 
Q 3503 -91 2522 -91 
Q 1538 -91 948 565 
Q 359 1222 359 2328 
Q 359 3434 948 4092 
Q 1538 4750 2522 4750 
z
" transform="scale(0.015625)"/>
      </defs>
      <use xlink:href="#DejaVuSans-50"/>
      <use xlink:href="#DejaVuSans-53" transform="translate(60.302734 0)"/>
      <use xlink:href="#DejaVuSans-4f" transform="translate(123.779297 0)"/>
     </g>
    </g>
    <g id="line2d_30">
     <path d="M 585.492188 88.256563 
L 595.492188 88.256563 
L 605.492188 88.256563 
" style="fill: none; stroke: #ff7f0e; stroke-width: 2.5; stroke-linecap: square"/>
    </g>
    <g id="text_18">
     <!-- GWO -->
     <g transform="translate(613.492188 91.756563) scale(0.1 -0.1)">
      <defs>
       <path id="DejaVuSans-47" d="M 3809 666 
L 3809 1919 
L 2778 1919 
L 2778 2438 
L 4434 2438 
L 4434 434 
Q 4069 175 3628 42 
Q 3188 -91 2688 -91 
Q 1594 -91 976 548 
Q 359 1188 359 2328 
Q 359 3472 976 4111 
Q 1594 4750 2688 4750 
Q 3144 4750 3555 4637 
Q 3966 4525 4313 4306 
L 4313 3634 
Q 3963 3931 3569 4081 
Q 3175 4231 2741 4231 
Q 1884 4231 1454 3753 
Q 1025 3275 1025 2328 
Q 1025 1384 1454 906 
Q 1884 428 2741 428 
Q 3075 428 3337 486 
Q 3600 544 3809 666 
z
" transform="scale(0.015625)"/>
       <path id="DejaVuSans-57" d="M 213 4666 
L 850 4666 
L 1831 722 
L 2809 4666 
L 3519 4666 
L 4500 722 
L 5478 4666 
L 6119 4666 
L 4947 0 
L 4153 0 
L 3169 4050 
L 2175 0 
L 1381 0 
L 213 4666 
z
" transform="scale(0.015625)"/>
      </defs>
      <use xlink:href="#DejaVuSans-47"/>
      <use xlink:href="#DejaVuSans-57" transform="translate(77.490234 0)"/>
      <use xlink:href="#DejaVuSans-4f" transform="translate(176.367188 0)"/>
     </g>
    </g>
   </g>
  </g>
 </g>
 <defs>
  <clipPath id="p382e81c750">
   <rect x="90" y="60.48" width="558" height="388.08"/>
  </clipPath>
 </defs>
</svg>
